<svg width="36" height="29" viewBox="0 0 36 29" fill="none" xmlns="http://www.w3.org/2000/svg">
<path d="M34.5122 4.60212C32.7397 1.7657 29.6421 0.0304351 26.2972 0.000396883C22.9527 -0.0296623 19.8241 1.64946 18.0006 4.45314C16.3616 1.93371 13.6565 0.306247 10.6625 0.0391432C7.66865 -0.227961 4.71789 0.894794 2.65882 3.08434C0.599748 5.2739 -0.339739 8.28777 0.110631 11.2595C0.529351 14.0326 2.34845 16.8714 5.67216 19.9388C8.47793 22.5287 11.8779 24.8554 14.8774 26.9084C15.8575 27.5779 16.7832 28.212 17.6228 28.8106V28.8108C17.8488 28.9719 18.152 28.9719 18.378 28.8108C19.2176 28.2123 20.1433 27.5792 21.1234 26.9086C24.1231 24.8556 27.5229 22.5289 30.3286 19.9391C33.6523 16.8712 35.4714 14.0327 35.8901 11.2591C36.2392 8.94631 35.7501 6.58511 34.5114 4.60144L34.5122 4.60212ZM34.6042 11.0654C34.2313 13.5342 32.5443 16.124 29.4458 18.9833C26.7097 21.5094 23.3509 23.8076 20.3892 25.8348C19.5477 26.4106 18.7464 26.9591 18.001 27.4841C17.2556 26.9591 16.4543 26.4107 15.6131 25.835C12.6502 23.8076 9.29148 21.5091 6.55645 18.9836C3.45745 16.124 1.77045 13.5342 1.39757 11.0657C1.08459 9.05932 1.50462 7.0074 2.58067 5.2853C3.65698 3.5632 5.31739 2.28647 7.25779 1.68875C8.08867 1.42823 8.95404 1.2956 9.82441 1.29508C11.4091 1.29561 12.9619 1.74254 14.3046 2.58422C15.6472 3.42617 16.7256 4.62932 17.4165 6.05556C17.5259 6.27837 17.7524 6.4197 18.0008 6.4197C18.2492 6.4197 18.4757 6.27837 18.5851 6.05556C19.7851 3.60681 22.0883 1.88336 24.7763 1.42299C27.464 0.962613 30.2094 1.82115 32.1563 3.73121C34.1027 5.64104 35.0135 8.36959 34.6043 11.0659L34.6042 11.0654Z" fill="white"/>
</svg>
